<svg xmlns="http://www.w3.org/2000/svg" width="46" height="32.245" viewBox="0 0 46 32.245"><g transform="translate(-538.934 -1202.531)"><path d="M540.934,1218.5c0-2.164,1.9-4.177,5-5.75v-2.216c-4.334,1.989-7,4.8-7,7.966,0,5.345,7.586,9.683,18,10.748v-2.028C547.874,1226.229,540.934,1222.642,540.934,1218.5Z"/><path d="M584.934,1218.5c0-2.915-2.258-5.53-6-7.48v2.286c2.5,1.48,4,3.276,4,5.194,0,4.6-8.563,8.529-19.091,8.958l3.945-3.555-1.339-1.486-6.515,5.866,6.276,6.493,1.438-1.39-3.793-3.925C575.822,1229.007,584.934,1224.358,584.934,1218.5Z"/><path d="M560.845,1208.111a3.59,3.59,0,0,0,.335-1.55,3.911,3.911,0,0,0-.52-1.95,3.854,3.854,0,0,0-1.631-1.5,6.19,6.19,0,0,0-2.869-.58,6.639,6.639,0,0,0-2.381.38,4.241,4.241,0,0,0-1.61,1.045,4.163,4.163,0,0,0-.91,1.53,5.714,5.714,0,0,0-.289,1.825h3.1a1.989,1.989,0,0,1,2.151-2.36,2.047,2.047,0,0,1,1.329.42,1.634,1.634,0,0,1,.52,1.35,2.521,2.521,0,0,1-.114.755,1.725,1.725,0,0,1-.375.65,1.789,1.789,0,0,1-.685.45,2.9,2.9,0,0,1-1.045.165h-.52v2.17h.52a3.34,3.34,0,0,1,1.06.145,1.541,1.541,0,0,1,.679.425,1.725,1.725,0,0,1,.366.68,3.326,3.326,0,0,1,.114.91,2.389,2.389,0,0,1-.525,1.73,1.851,1.851,0,0,1-1.375.53,2.619,2.619,0,0,1-1.12-.22,1.5,1.5,0,0,1-.724-.78,3.862,3.862,0,0,1-.256-1.57v-.04h-3.1v.04a7.245,7.245,0,0,0,.244,1.915,4.1,4.1,0,0,0,.83,1.585,3.92,3.92,0,0,0,1.585,1.085,6.858,6.858,0,0,0,2.5.4,5.766,5.766,0,0,0,2.875-.635,4,4,0,0,0,1.645-1.68,4.951,4.951,0,0,0,.531-2.275,4.229,4.229,0,0,0-.335-1.72,2.947,2.947,0,0,0-.97-1.22,2.644,2.644,0,0,0-1.5-.49,2.85,2.85,0,0,0,1.5-.47A2.789,2.789,0,0,0,560.845,1208.111Z"/><path d="M574.589,1207.121a6.78,6.78,0,0,0-1.345-2.325,6.06,6.06,0,0,0-2.09-1.51,6.63,6.63,0,0,0-2.7-.535h-4.77v14.75h4.77a6.565,6.565,0,0,0,2.7-.54,6.052,6.052,0,0,0,2.09-1.525,6.872,6.872,0,0,0,1.345-2.345,9.713,9.713,0,0,0,0-5.97Zm-3.19,5.645a4.088,4.088,0,0,1-1.385,1.73,3.36,3.36,0,0,1-1.955.6h-1.25v-9.95h1.25a3.4,3.4,0,0,1,1.955.595,4.037,4.037,0,0,1,1.385,1.7,6.3,6.3,0,0,1,.51,2.655A6.409,6.409,0,0,1,571.4,1212.766Z"/></g></svg>