<svg width="24" height="24" viewBox="0 0 24 24" fill="none" xmlns="http://www.w3.org/2000/svg">
<path d="M10.3242 6.29021C10.0243 6.60794 9.82348 7.00607 9.74609 7.43602C9.83782 7.32529 9.9379 7.22176 10.0454 7.12634C10.2416 7.00247 10.4429 6.88376 10.6493 6.78054L11.0261 6.66182L11.4132 6.5844L11.7538 6.55344H12.1409C12.2372 6.58567 12.3391 6.59796 12.4403 6.58957L12.7603 6.68247L13.2764 6.86828L13.6067 7.05924L13.7925 7.1986V6.30569C13.2753 5.9396 12.65 5.75784 12.0171 5.78957C11.7157 5.75307 11.41 5.77866 11.1188 5.86477C10.8277 5.95087 10.5572 6.09565 10.3242 6.29021Z" fill="#287153"/>
<path d="M5.11028 7.1566C5.11476 7.3195 5.18122 7.47456 5.29609 7.59015C5.36677 7.71023 5.47587 7.80296 5.60577 7.85337C5.78528 7.94277 5.98329 7.98874 6.18383 7.98757C6.36448 7.98757 6.54512 8.03402 6.73093 8.0495C7.35545 8.10628 7.98512 8.19402 8.61996 8.22499H8.63028C8.79545 8.22499 8.95545 8.28176 9.14641 8.28692C9.09383 7.4173 9.38693 6.56211 9.9619 5.90757C10.2457 5.65991 10.5786 5.47491 10.9388 5.36463C11.299 5.25435 11.6784 5.22127 12.0522 5.26757C13.7503 5.34499 14.2406 5.99015 14.2871 6.06241L14.3387 6.13467L14.3077 7.97208C14.3339 8.06783 14.3443 8.16718 14.3387 8.26628L14.0961 8.55531L13.7296 8.86499L13.4509 9.0766L13.0742 9.33983L12.558 9.65982L12.2071 9.83531L11.8716 9.99531C11.7551 10.032 11.644 10.0841 11.5413 10.1501C11.42 10.1849 11.3038 10.2352 11.1954 10.2998C11.0788 10.3313 10.9662 10.3763 10.86 10.434H10.8187C10.6969 10.4674 10.5792 10.5141 10.4677 10.5734H10.4316L8.97609 11.0534C8.9487 11.0607 8.92504 11.078 8.90976 11.1019C8.89448 11.1257 8.88868 11.1545 8.89351 11.1824V12.9166C15.3554 10.8521 16.6354 8.2095 16.8316 6.79015C17.0329 5.24176 16.1554 3.69337 14.4832 2.66112C13.5639 2.09671 12.5266 1.75228 11.4523 1.65469C10.378 1.55711 9.29561 1.709 8.28964 2.09854H8.23287C8.00343 2.22333 7.79021 2.37587 7.59803 2.55273C7.45837 2.64173 7.33011 2.74746 7.21609 2.86757C7.10316 2.94955 7.00388 3.04883 6.9219 3.16176C6.80515 3.26381 6.69961 3.378 6.60706 3.50241C6.45304 3.66203 6.31316 3.83473 6.18899 4.01854C6.04156 4.20238 5.92 4.40556 5.8277 4.62241C5.73388 4.78658 5.6561 4.95943 5.59545 5.13854C5.52621 5.27127 5.47252 5.41155 5.43545 5.5566L5.30641 5.93338C5.22917 6.14427 5.17214 6.36202 5.13609 6.5837C5.06086 6.74491 5.04266 6.92691 5.08448 7.09982L5.11028 7.1566Z" fill="#287153"/>
<path d="M19.3921 7.71489V7.36909C19.3863 7.125 19.3516 6.88245 19.2889 6.6465C19.2697 6.46935 19.2263 6.29568 19.1598 6.13037C19.1277 5.97369 19.0775 5.82127 19.0102 5.67618C18.9694 5.51452 18.905 5.35974 18.8192 5.21683C18.745 5.01612 18.6462 4.8254 18.525 4.64909C18.4163 4.4315 18.283 4.22714 18.1276 4.04005C17.5807 3.28867 16.8915 2.65208 16.0992 2.1665C14.9389 1.44613 13.6088 1.04548 12.2437 1.00521C11.7245 0.984394 11.2046 1.02598 10.6953 1.12908C12.1268 1.12501 13.5319 1.51422 14.7572 2.25424C16.6102 3.40005 17.5805 5.13424 17.3379 6.89941C17.1676 8.19489 16.1818 10.4297 11.8876 12.3807C13.1108 13.2581 15.6089 13.413 18.0502 11.7097C18.1935 11.518 18.3229 11.3162 18.4372 11.1059C18.546 10.9648 18.633 10.8082 18.6953 10.6413C18.7823 10.515 18.8485 10.3756 18.8914 10.2284C18.9676 10.1069 19.0201 9.97205 19.0463 9.83102C19.134 9.73295 19.1031 9.59876 19.1547 9.49038C19.2044 9.38522 19.2325 9.27113 19.2372 9.15489C19.2949 8.97768 19.3296 8.79382 19.3405 8.6078C19.373 8.44825 19.3851 8.28523 19.3766 8.12263L19.3921 7.71489Z" fill="#287153"/>
<path d="M9.91576 13.9077C10.1384 13.9906 10.3682 14.0528 10.6022 14.0935C10.8746 14.1662 11.1525 14.2163 11.4332 14.2431C12.1454 14.3327 12.8669 14.3188 13.5751 14.2018C13.6463 14.2092 13.7123 14.2422 13.7609 14.2947C14.0022 14.4831 14.1943 14.7269 14.321 15.0055C14.4477 15.2841 14.5052 15.5892 14.4887 15.8947L14.4061 16.3077L14.2358 16.6535C14.2009 16.7105 14.163 16.7656 14.1222 16.8186C14.0247 17.1521 13.8593 17.4618 13.6364 17.7283C13.4134 17.9948 13.1378 18.2122 12.8267 18.367C12.4077 18.5799 11.9445 18.6912 11.4745 18.6922C11.0528 18.6946 10.6368 18.5954 10.2616 18.4031C9.68283 18.1242 9.19447 17.6877 8.85254 17.1438C8.62744 17.4611 8.48142 17.8276 8.42666 18.2127C8.37189 18.5979 8.40996 18.9905 8.5377 19.358C9.05383 20.6328 10.7158 21.5206 12.5377 21.4586C13.3393 21.4567 14.1271 21.2499 14.8263 20.8579C15.5255 20.4658 16.1128 19.9016 16.5325 19.2186C17.1467 18.1244 17.5338 16.2199 15.9441 13.3244C15.3711 13.4941 14.7767 13.581 14.179 13.5825C13.1332 13.6199 12.1084 13.2832 11.2887 12.6328C10.4987 12.9656 9.69254 13.2584 8.87318 13.5102C9.20649 13.6774 9.55578 13.8105 9.91576 13.9077Z" fill="#287153"/>
<path d="M19.1953 16.8189C19.1903 16.5981 19.1538 16.3791 19.0869 16.1686C19.0673 15.9549 19.0132 15.7457 18.9269 15.5492C18.892 15.3679 18.8275 15.1935 18.7359 15.0331C18.6835 14.8278 18.5943 14.6337 18.4727 14.4602C18.3935 14.2372 18.2765 14.0294 18.1269 13.846C18.038 13.6577 17.9214 13.4837 17.7811 13.3299C17.6568 13.1332 17.517 12.9468 17.363 12.7725C17.0769 12.9206 16.7821 13.0516 16.4804 13.1647C18.132 16.2305 17.6933 18.295 16.9966 19.4925C16.5325 20.2553 15.8811 20.8867 15.1042 21.3266C14.3272 21.7666 13.4507 22.0005 12.5578 22.006H12.3772C10.4108 22.006 8.60946 20.9738 8.04688 19.5647C7.77333 18.8576 7.59269 17.5002 9.24946 15.8486H9.19785L5.70882 16.3234C5.67392 16.3178 5.63816 16.321 5.60481 16.3327C5.57146 16.3444 5.54157 16.3643 5.51785 16.3905C5.34488 16.5564 5.20936 16.7574 5.12034 16.9799C5.03133 17.2024 4.99089 17.4414 5.00172 17.6808C5.00882 17.9154 5.047 18.148 5.11527 18.3725C5.13737 18.5696 5.18778 18.7626 5.26495 18.9454C5.30201 19.1247 5.36276 19.2982 5.44559 19.4615C5.51587 19.6734 5.61117 19.8761 5.72946 20.0654C5.82594 20.2653 5.94923 20.4511 6.09591 20.6176C6.19995 20.8057 6.32837 20.9793 6.47785 21.1338C6.62702 21.341 6.80027 21.5299 6.99398 21.6963C7.16517 21.8891 7.35733 22.0622 7.56688 22.2125C7.77326 22.4125 8.00387 22.5859 8.25333 22.7286C8.44135 22.8685 8.6459 22.9846 8.86236 23.0744C9.10382 23.2128 9.36005 23.3236 9.62624 23.4047C10.0339 23.5509 10.4536 23.6615 10.8804 23.735C11.159 23.7962 11.4421 23.8342 11.7269 23.8486C13.0339 23.9868 14.3537 23.7618 15.5411 23.1983C16.3511 22.8039 17.066 22.2387 17.6366 21.5415C17.9108 21.231 18.1402 20.8835 18.3178 20.5092C18.4992 20.2565 18.6418 19.9782 18.7411 19.6834C18.8489 19.4787 18.9271 19.2598 18.9733 19.0331C19.0503 18.8232 19.1023 18.6049 19.1282 18.3828C19.1328 18.3624 19.1328 18.3412 19.1282 18.3208C19.1724 18.1525 19.1932 17.9788 19.1901 17.8047C19.1901 17.7583 19.1901 17.7221 19.1901 17.6912C19.2324 17.4021 19.2342 17.1085 19.1953 16.8189Z" fill="#287153"/>
<path d="M10.5292 17.9284C10.8531 18.0816 11.2081 18.1576 11.5663 18.1504C11.9245 18.1432 12.2762 18.0531 12.5937 17.8871C12.6721 17.8492 12.748 17.8061 12.8208 17.7581L12.4337 17.851H11.5563C11.2306 17.8239 10.9115 17.7437 10.6117 17.6136C10.3114 17.4334 10.0457 17.2009 9.82723 16.9271V16.9065C9.70992 16.7199 9.60642 16.5249 9.51755 16.3232C9.41432 16.4316 9.31626 16.54 9.22852 16.6484C9.49366 17.2179 9.95554 17.6724 10.5292 17.9284Z" fill="#287153"/>
</svg>
