<svg width="24" height="24" viewBox="0 0 24 24" fill="none" xmlns="http://www.w3.org/2000/svg">
<path fill-rule="evenodd" clip-rule="evenodd" d="M18.5253 3.5346C20.9273 4.65547 22.3582 7.31661 22.5649 10.6264C22.6161 11.4463 21.993 12.1524 21.1731 12.2036C20.3532 12.2548 19.647 11.6317 19.5958 10.8118C19.4307 8.16782 18.3515 6.73627 17.2674 6.23038C16.2334 5.74789 14.6333 5.8539 12.7877 7.5414C8.88611 11.1087 6.40517 15.4435 4.67549 18.4656C4.34557 19.0421 4.04299 19.5708 3.76309 20.0373C3.34045 20.7417 2.42678 20.9701 1.72237 20.5474C1.01796 20.1248 0.789545 19.2111 1.21219 18.5067C1.45692 18.0988 1.73237 17.6159 2.04153 17.0739C3.75286 14.0735 6.49714 9.26213 10.7803 5.34593C13.211 3.12349 16.0732 2.39033 18.5253 3.5346Z" fill="black"/>
<circle cx="21.2667" cy="14.6202" r="1.48742" fill="black"/>
</svg>
