<svg width="24" height="24" viewBox="0 0 24 24" fill="none" xmlns="http://www.w3.org/2000/svg">
<rect width="24" height="23" rx="3" fill="#0D2A42"/>
<path d="M2 20L3.15512 18.2785C5.06722 15.4448 6.40047 12.3481 7.5844 9.17814C7.99826 8.07346 8.42783 6.97383 8.79715 5.85651C8.90263 5.4783 9.12101 5.13838 9.42513 4.87904C9.72925 4.6197 10.1057 4.45238 10.5076 4.39792C11.0943 4.28922 11.6863 4.20074 12.4537 4.07435C12.0661 4.95405 11.7386 5.64922 11.4531 6.34944C10.8271 7.91167 10.1094 9.45368 10.0047 11.1524C9.97585 11.615 9.81345 12.1939 10.3687 12.4644C10.924 12.7349 11.5212 12.4998 12.0006 12.1282C13.1845 11.2131 13.9546 9.98706 14.6644 8.73071C15.5183 7.21398 16.3382 5.69725 17.1371 4.15019C17.4619 3.52833 18.0093 3.30082 18.6406 3.17442C19.0387 3.09353 19.4499 3.06825 20 3C19.89 3.25279 19.8297 3.39435 19.7381 3.53591C18.8999 5.0223 17.9595 6.46572 17.2497 8.00773C16.8805 8.74735 16.717 9.56695 16.7754 10.386C16.8337 11.205 17.1118 11.9953 17.5824 12.6793C17.8286 13.0559 17.7762 13.3441 17.4252 13.6626C16.9197 14.1227 16.477 14.646 15.9977 15.1338C15.8772 15.2311 15.7464 15.3158 15.6074 15.3866C15.28 14.2339 14.9683 13.1393 14.6068 11.8779C14.1144 12.3405 13.7896 12.702 13.4072 12.9927C12.7684 13.4926 12.0974 13.9527 11.3981 14.3704C10.4683 14.8987 9.63795 14.5195 8.86786 13.9584C8.74738 13.8699 8.63737 13.7662 8.51688 13.6778C8.48807 13.655 8.43569 13.6626 8.30472 13.6449C8.01921 14.2895 7.74418 14.9594 7.42986 15.6141C7.04744 16.4129 6.64581 17.2025 6.22497 17.9827C5.66444 19.0141 4.72409 19.5146 3.56111 19.6967C3.09749 19.7674 2.65221 19.8736 2 20Z" fill="white"/>
</svg>
