<svg width="24" height="24" viewBox="0 0 24 24" fill="none" xmlns="http://www.w3.org/2000/svg">
<path d="M3.62431 4.50394C3.74855 5.78452 3.99043 7.05094 4.34689 8.28716C4.64559 9.34753 5.05923 10.3721 5.58044 11.3426C5.93021 12.0134 6.39688 12.6164 6.9585 13.1233C8.31519 12.9572 9.65866 12.6968 10.9791 12.3439C11.8803 12.1143 12.7369 11.7358 13.5133 11.2239C14.0497 10.8679 14.4668 10.3591 14.7108 9.76329C14.9465 9.10228 15.0295 8.39644 14.9533 7.69878C14.9311 7.20395 14.7997 6.72016 14.5686 6.28205C14.3375 5.84394 14.0124 5.46234 13.6166 5.16458C13.0036 4.71971 12.2977 4.41971 11.552 4.28716C10.9072 4.15894 10.2445 4.14845 9.59592 4.2562C9.28776 4.302 8.99192 4.4092 8.72595 4.57144C8.45998 4.73368 8.22928 4.94767 8.04753 5.20071C7.73519 5.7034 7.59396 6.29368 7.64495 6.88329C7.64045 7.43336 7.73846 7.97945 7.93399 8.49361C8.0138 8.6704 8.13402 8.82598 8.28495 8.94781C8.28257 8.92378 8.28257 8.89958 8.28495 8.87555C8.2471 8.50738 8.22646 8.14093 8.22302 7.7762V7.15684C8.22597 6.91385 8.31454 6.6797 8.47315 6.4956C8.63176 6.31149 8.85024 6.18925 9.09011 6.15039C9.18993 6.12617 9.29197 6.11234 9.39463 6.1091C9.71928 6.0833 10.0455 6.0833 10.3701 6.1091C10.7461 6.13159 11.1166 6.20986 11.4695 6.34136C11.6875 6.42537 11.8847 6.55567 12.0475 6.72329C12.217 6.89653 12.3162 7.12635 12.3262 7.36845C12.3262 7.6162 12.352 7.88458 12.352 8.11168C12.3571 8.36115 12.3169 8.60946 12.2333 8.84458C12.0856 9.23055 11.8107 9.55461 11.454 9.76329C11.2598 9.87984 11.0493 9.96681 10.8295 10.0214C10.5781 10.0932 10.3231 10.1518 10.0656 10.1968C9.85362 10.2288 9.63989 10.2477 9.4256 10.2536C9.28847 10.2577 9.15232 10.2294 9.02818 10.171C8.84869 10.0866 8.67612 9.98828 8.51205 9.87684C8.25266 9.7877 8.01363 9.64777 7.80892 9.46522C7.60421 9.28266 7.43793 9.06115 7.31979 8.81362C7.07714 8.21358 6.9544 7.57181 6.9585 6.92458C6.93259 6.54922 6.9604 6.17209 7.04108 5.80458C7.11301 5.43605 7.25682 5.08529 7.46431 4.77233C7.67692 4.45134 7.95479 4.17875 8.27979 3.97232C8.65204 3.74518 9.06337 3.58941 9.4927 3.51297C11.1034 3.23616 12.7582 3.60719 14.0966 4.54523C14.545 4.88566 14.9192 5.31423 15.1959 5.80458C15.4958 6.36265 15.6718 6.97879 15.712 7.61103C15.7877 8.42536 15.6765 9.24621 15.3869 10.011C15.0976 10.7489 14.592 11.3822 13.9366 11.8278C12.9456 12.5349 11.485 13.0665 9.33786 13.4949L9.67334 13.5878C10.4597 13.8266 11.215 14.1575 11.9237 14.5736C12.9921 15.2138 13.9813 15.9778 14.8708 16.8497C15.0875 17.0562 15.2733 17.2317 15.423 17.3659C15.774 17.6601 16.223 18.1091 16.7959 18.682C18.2195 20.1359 19.7183 21.5141 21.2862 22.811C19.8566 20.793 16.6927 16.313 16.2591 15.5285C15.7017 14.4962 15.5056 13.5259 16.4088 12.6794C17.3946 11.7556 18.143 10.6149 18.143 7.63168C18.143 0.782649 9.55979 0.777486 3.55721 1.10781C3.48464 2.24318 3.50708 3.38263 3.62431 4.51426" fill="#2D5EC2"/>
<path d="M6.46839 13.6651C5.84728 13.1079 5.33153 12.4436 4.94581 11.7038C4.39564 10.6847 3.95946 9.60808 3.64516 8.49344C3.38379 7.60149 3.18375 6.6927 3.04645 5.77344C3 7.99795 3 10.5167 3 12.0909C3.02581 15.4405 3.21677 23.2238 3.21677 23.2238L5.22968 23.936L6.46839 13.6651Z" fill="#2D5EC2"/>
<path d="M16.2751 19.1809C15.7177 18.6235 15.279 18.1848 14.9539 17.9164C14.7887 17.7771 14.5926 17.5964 14.3706 17.4003C13.5231 16.5589 12.5789 15.8208 11.5577 15.2016C10.8976 14.8156 10.1943 14.509 9.46225 14.288C8.72291 14.0619 7.95835 13.9284 7.18612 13.8906L5.96289 23.9758C6.60805 23.8055 7.94999 23.4597 8.26999 23.3616C8.45243 23.2857 8.60326 23.1494 8.69722 22.9756C8.79118 22.8018 8.82257 22.601 8.78612 22.4068C8.78612 21.9629 8.68289 18.2364 8.74483 17.2971C8.80676 16.3577 9.14741 15.4648 10.4893 16.7087C11.8313 17.9526 14.6184 22.3861 14.9487 22.8506C15.1311 23.0858 15.3663 23.2748 15.6353 23.4021C15.9043 23.5295 16.1996 23.5916 16.4971 23.5835C17.0648 23.6145 20.11 23.7487 21.3074 23.8003C19.5254 22.3541 17.8312 20.803 16.2339 19.1551" fill="#2D5EC2"/>
</svg>
