<svg width="24" height="19" viewBox="0 0 24 19" fill="none" xmlns="http://www.w3.org/2000/svg">
<path d="M7.94746 9.67086C8.28957 10.6558 8.64202 11.5638 8.91082 12.4961C9.02737 12.9031 8.97943 13.3608 8.98507 13.7969C8.98201 13.8468 8.96658 13.8952 8.94017 13.9377C8.91375 13.9802 8.87718 14.0155 8.83375 14.0403C8.76044 14.0572 8.63075 13.9745 8.57811 13.8993C8.43619 13.6954 8.32529 13.4698 8.19464 13.2574C7.46342 12.061 6.59686 10.9848 5.40981 10.2075C4.00063 9.2852 2.4796 9.03269 0.846734 9.44999C0.228299 9.60883 -0.0677597 9.40582 0.0130692 8.76483C0.104569 8.10199 0.261994 7.44993 0.483005 6.81835C0.542216 6.64636 0.901248 6.46496 1.11272 6.4753C1.8242 6.51196 2.53286 6.62944 3.24058 6.72531C3.42198 6.74974 3.59867 6.80989 3.83928 6.86817C4.27444 5.0279 4.63347 3.23557 3.35525 1.57857C3.11652 1.2703 3.17385 1.06822 3.54322 0.962018C4.53291 0.680056 5.51695 0.377419 6.51604 0.132113C7.37038 -0.0765385 7.67772 0.142451 7.89577 1.00149C8.1648 2.02373 8.09555 3.10561 7.69839 4.08521C7.22845 5.23373 6.61848 6.32304 6.06396 7.43491C5.98656 7.56928 5.90119 7.6989 5.80831 7.82308C5.86665 7.90535 5.9294 7.98442 5.99628 8.05993C6.54893 8.63889 6.7839 8.63982 7.29613 8.0524C8.64296 6.50068 9.27456 4.64913 9.53584 2.64721C9.58189 2.29194 9.59975 1.9329 9.62983 1.57575C9.6599 1.19041 9.79712 1.11334 10.1383 1.29379C10.2063 1.33154 10.2711 1.37492 10.3319 1.42349C11.6787 2.49495 12.6402 3.82205 13.0434 5.51569C13.2859 6.53169 13.1092 6.95088 12.2605 7.54487C11.0901 8.35054 9.81473 8.99187 8.47003 9.45093C8.2548 9.52894 8.0499 9.63045 7.94746 9.67086Z" fill="black"/>
<path d="M23.9789 8.16706C23.9789 8.44902 24.0325 8.63136 23.9695 8.7573C23.7092 9.28175 23.4996 9.8748 23.1133 10.2874C21.8727 11.6032 20.5822 12.8702 19.2598 14.1052C18.6752 14.6541 18.1809 15.1926 18.038 16.0225C17.9854 16.3322 17.8682 16.6273 17.6939 16.8887C17.5197 17.15 17.2923 17.3718 17.0267 17.5395C16.9092 17.6146 16.6348 17.6156 16.5464 17.531C16.3321 17.3261 16.1131 17.0723 16.0351 16.7988C15.9759 16.5902 16.4487 16.4906 16.678 16.687C16.7538 16.7632 16.8172 16.8507 16.866 16.9464C16.9125 17.0379 16.9536 17.132 16.9891 17.2284C17.209 16.7894 17.3378 16.3825 16.9891 15.984C16.741 15.702 16.4675 15.4012 16.0389 15.5244C15.5755 15.6569 15.537 16.0676 15.5257 16.5056L15.1648 16.2998L15.0924 16.3571C15.1833 16.5009 15.2824 16.6393 15.3894 16.7716C15.5774 16.9802 15.8359 17.1475 15.9618 17.3825C16.0662 17.5799 16.0229 17.8524 16.0455 18.0959C15.8255 18.0517 15.5276 18.0836 15.3979 17.9511C13.8941 16.4135 12.0689 15.3364 10.2192 14.2856C9.40717 13.826 9.37991 13.7217 9.6036 12.8354C9.66678 12.5304 9.69422 12.2191 9.68537 11.9077C9.68537 11.6145 9.65248 11.3194 9.6318 10.998C10.0237 11.0074 10.1337 11.2705 10.1544 11.5468C10.1788 11.8692 10.0961 12.2047 10.1262 12.5234C10.1562 12.842 10.1722 13.2912 10.364 13.4087C10.9465 13.751 11.5686 14.0212 12.2164 14.2132C12.3631 14.2593 12.6413 13.9783 12.8189 13.8072C12.9213 13.7085 12.9514 13.5253 13.0069 13.3833C13.3922 12.2658 13.9533 11.8796 15.1338 11.9134C15.2211 11.9064 15.308 11.8948 15.3941 11.8786C14.4289 11.3194 13.6422 11.9077 12.9063 12.0252C12.8358 12.2771 12.8236 12.6352 12.7042 12.6766C12.5059 12.7442 12.2155 12.6512 12.0059 12.544C11.6751 12.3749 11.3828 12.1314 11.066 11.9312C10.5735 11.6192 10.567 11.5863 10.9815 11.1436C11.0331 11.0882 11.0754 11.0271 11.1929 10.8927C10.7662 10.8541 10.4081 10.8231 10.05 10.7884C9.31224 10.7179 9.07069 10.2169 9.53405 9.63608C9.73894 9.38043 10.0472 9.19246 10.3367 9.0214C11.1892 8.51481 12.0802 8.07025 12.9101 7.52983C13.5793 7.09373 13.7494 7.10407 14.0069 7.85502C14.1131 8.16518 14.1949 8.48192 14.3048 8.79489C14.6319 9.73006 15.9186 10.5562 17.0145 9.8983C17.2611 9.76391 17.523 9.65977 17.7946 9.58814C17.8998 9.55525 18.1019 9.56653 18.132 9.62386C18.1588 9.68313 18.172 9.74764 18.1707 9.81268C18.1694 9.87772 18.1536 9.94165 18.1245 9.99981C17.82 10.4509 17.4807 10.8776 17.1667 11.3222C17.0681 11.4632 16.913 11.7282 16.9572 11.7762C17.0906 11.919 17.3209 12.0816 17.491 12.0581C17.9318 12.0046 18.397 11.9284 18.7871 11.7329C20.4554 10.8983 21.9375 9.77988 23.3736 8.59846C23.5372 8.47158 23.7139 8.35785 23.9789 8.16706ZM12.2522 12.3711C12.318 12.201 12.4091 12.0412 12.3847 12.0205C12.1335 11.8121 11.8695 11.6197 11.5943 11.4444C11.5764 11.4331 11.4542 11.5835 11.38 11.6596L12.2522 12.3711Z" fill="black"/>
</svg>
